<svg t="1724725301030" class="icon" viewBox="0 0 1024 1024" version="1.1" xmlns="http://www.w3.org/2000/svg"
     p-id="14445" width="200" height="200">
    <path d="M902 459.5V326.84375c0-15.9375-6.28125-31.21875-17.53125-42.46875L649.53125 49.53125C638.28125 38.28125 623.09375 32 607.15625 32H167c-24.84375 0-45 20.15625-45 45v382.5c0 4.125-3.375 7.5-7.5 7.5H47c-8.25 0-15 6.75-15 15v375c0 8.25 6.75 15 15 15h75c0 66.28125 53.71875 120 120 120h615c24.84375 0 45-20.15625 45-45v-60c0-8.25 6.75-15 15-15h60c8.25 0 15-6.75 15-15V482c0-8.25-6.75-15-15-15h-67.5c-4.125 0-7.5-3.375-7.5-7.5zM692 176.84375l65.15625 65.15625H695.75c-2.0625 0-3.75-1.6875-3.75-3.75v-61.40625zM189.5 92h382.5c33.09375 0 60 26.90625 60 60v135c0 8.25 6.75 15 15 15h135c33.09375 0 60 26.90625 60 60v97.5c0 4.125-3.375 7.5-7.5 7.5H189.5c-4.125 0-7.5-3.375-7.5-7.5V99.5c0-4.125 3.375-7.5 7.5-7.5z m645 840H242c-33.09375 0-60-26.90625-60-60h652.5c4.125 0 7.5 3.375 7.5 7.5v45c0 4.125-3.375 7.5-7.5 7.5z m90-120H99.5c-4.125 0-7.5-3.375-7.5-7.5V534.5c0-4.125 3.375-7.5 7.5-7.5h825c4.125 0 7.5 3.375 7.5 7.5v270c0 4.125-3.375 7.5-7.5 7.5z"
          fill="#1296db" p-id="14446"></path>
    <path d="M266.09375 687.78125c0 25.875-6 45.65625-17.90625 59.53125-11.90625 13.6875-28.96875 20.625-51.1875 20.625-9.84375 0-19.03125-1.6875-27.375-5.0625v-39.28125c7.21875 5.4375 15.46875 8.25 24.75 8.25 20.0625 0 30.09375-15.1875 30.09375-45.5625V568.90625h41.71875v118.875zM300.5 715.25c15.75 13.03125 33.65625 19.59375 53.71875 19.59375 11.34375 0 19.875-1.96875 25.59375-5.90625 5.71875-3.9375 8.625-8.90625 8.625-15.09375 0-5.34375-2.25-10.3125-6.84375-15s-16.5-11.15625-36-19.21875c-30.5625-12.9375-45.84375-31.78125-45.84375-56.625 0-18.1875 6.9375-32.34375 20.8125-42.375 13.875-10.03125 32.15625-15.09375 55.03125-15.09375 19.125 0 35.15625 2.53125 48.09375 7.40625v39.1875c-13.125-8.90625-28.5-13.40625-46.125-13.40625-10.3125 0-18.46875 1.875-24.65625 5.625-6.1875 3.75-9.1875 8.8125-9.1875 15.09375 0 5.0625 2.0625 9.75 6.28125 13.96875s14.625 10.03125 31.21875 17.25c19.40625 8.34375 32.8125 17.15625 40.125 26.4375 7.3125 9.28125 10.96875 20.25 10.96875 33.09375 0 18.75-6.65625 33.09375-19.96875 42.9375-13.3125 9.84375-32.25 14.8125-56.71875 14.8125-22.40625 0-40.78125-3.65625-55.03125-10.875v-41.8125zM452.75 669.3125c0-30.65625 8.90625-55.59375 26.8125-74.8125s41.53125-28.875 70.875-28.875c27.9375 0 50.4375 9.28125 67.5 27.9375 17.0625 18.5625 25.59375 42.5625 25.59375 71.71875 0 30.46875-8.90625 55.21875-26.625 74.15625-17.71875 19.03125-40.96875 28.5-69.65625 28.5-28.03125 0-50.8125-9.1875-68.34375-27.5625-17.34375-18.375-26.15625-42.09375-26.15625-71.0625z m43.875-2.25c0 19.03125 4.59375 34.59375 13.78125 46.6875 9.1875 12.09375 21.75 18.09375 37.78125 18.09375 16.3125 0 29.0625-5.8125 38.15625-17.34375 9.09375-11.53125 13.59375-27.09375 13.59375-46.6875 0-20.34375-4.40625-36.46875-13.21875-48.28125-8.8125-11.8125-21.28125-17.71875-37.40625-17.71875-16.3125 0-29.15625 6.09375-38.625 18.1875-9.375 12.09375-14.0625 27.75-14.0625 47.0625zM850.625 764.5625h-42.65625l-82.875-126.5625c-4.3125-6.5625-7.40625-11.90625-9.375-15.9375h-0.65625c0.75 6.75 1.125 17.15625 1.125 31.21875v111.28125h-39.5625V568.90625h45.46875l79.78125 123c5.34375 8.15625 8.53125 13.3125 9.75 15.5625h0.65625c-0.84375-4.6875-1.21875-13.6875-1.21875-27v-111.5625h39.5625v195.65625z"
          fill="#1296db" p-id="14447"></path>
</svg>